<svg xmlns="http://www.w3.org/2000/svg" width="35" height="35" viewBox="0 0 35 35">
    <g fill="none" fill-rule="evenodd">
        <circle cx="17.5" cy="17.5" r="17.5" fill="#F8F7F5" opacity=".803"/>
        <path fill-rule="nonzero" stroke="#3B3737" stroke-width="1.5" d="M20.768 12.5A3.6 3.6 0 0 0 18 13.796a3.6 3.6 0 0 0-2.768-1.296c-1.977 0-3.585 1.591-3.585 3.547 0 1.531.923 3.303 2.743 5.265a26.33 26.33 0 0 0 3.358 3.001L18 24.5l.252-.187a26.33 26.33 0 0 0 3.358-3.001c1.82-1.962 2.743-3.734 2.743-5.265 0-1.956-1.608-3.547-3.585-3.547z"/>
    </g>
</svg>
